<?xml version="1.0" encoding="UTF-8" standalone="no"?>
<!DOCTYPE svg PUBLIC "-//W3C//DTD SVG 1.1//EN" "http://www.w3.org/Graphics/SVG/1.1/DTD/svg11.dtd">
<svg width="100%" height="100%" viewBox="0 0 1024 640" version="1.1" xmlns="http://www.w3.org/2000/svg" xmlns:xlink="http://www.w3.org/1999/xlink" xml:space="preserve" xmlns:serif="http://www.serif.com/" style="fill-rule:evenodd;clip-rule:evenodd;stroke-linejoin:round;stroke-miterlimit:2;">
    <g transform="matrix(2.90352,-0.779091,0.83299,2.71565,-992.201,-1345.35)">
        <path d="M249.106,706.478C238.783,727.981 233,752.071 233,777.5C233,784.404 233.426,791.209 234.304,797.878C179.278,762.384 148.61,695.625 162.209,627.509C162.868,624.212 163.62,620.958 164.493,617.765C187.168,612.146 211.42,611.33 235.847,616.207C260.042,621.037 281.934,630.959 300.601,644.633C283.225,657.316 268.431,673.321 257.154,691.71C227.24,685.286 202.145,665.834 188.123,639.605C197.035,670.195 219.777,694.893 249.106,706.478Z"/>
    </g>
    <g transform="matrix(3.02065,0,0,2.8252,-277.361,-1805.3)">
        <path d="M222.495,802.065C223.266,711.934 296.677,639 386.988,639C397.203,639 407.202,639.933 416.87,641.763C425.857,662.039 430.822,684.451 430.822,708.013C430.822,782.284 381.495,845.124 313.843,865.533C308.453,852.52 300.466,840.851 290.531,831.174C288.23,828.903 285.823,826.74 283.317,824.692C293.249,783.134 318.971,747.687 353.774,725.085C313.478,741.033 280.979,772.466 263.612,812.028C251.134,805.892 237.231,802.212 222.536,801.62L222.525,802.066L222.495,802.065Z"/>
    </g>
</svg>
