<?xml version="1.0" encoding="UTF-8" standalone="no"?>
<!DOCTYPE svg PUBLIC "-//W3C//DTD SVG 1.1//EN" "http://www.w3.org/Graphics/SVG/1.1/DTD/svg11.dtd">
<svg width="100%" height="100%" viewBox="0 0 3250 670" version="1.1" xmlns="http://www.w3.org/2000/svg" xmlns:xlink="http://www.w3.org/1999/xlink" xml:space="preserve" xmlns:serif="http://www.serif.com/" style="fill-rule:evenodd;clip-rule:evenodd;stroke-linejoin:round;stroke-miterlimit:2;">
    <g transform="matrix(2.83547,-0.815611,0.813466,2.84295,-968.946,-1408.41)">
        <path d="M249.106,706.478C238.783,727.981 233,752.071 233,777.5C233,784.404 233.426,791.209 234.304,797.878C179.278,762.384 148.61,695.625 162.209,627.509C162.868,624.212 163.62,620.958 164.493,617.765C187.168,612.146 211.42,611.33 235.847,616.207C260.042,621.037 281.934,630.959 300.601,644.633C283.225,657.316 268.431,673.321 257.154,691.71C227.24,685.286 202.145,665.834 188.123,639.605C197.035,670.195 219.777,694.893 249.106,706.478Z" style="fill:white;"/>
    </g>
    <g transform="matrix(2.94985,0,0,2.95763,-270.86,-1889.92)">
        <path d="M222.495,802.065C223.266,711.934 296.677,639 386.988,639C397.203,639 407.202,639.933 416.87,641.763C425.857,662.039 430.822,684.451 430.822,708.013C430.822,782.284 381.495,845.124 313.843,865.533C308.453,852.52 300.466,840.851 290.531,831.174C288.23,828.903 285.823,826.74 283.317,824.692C293.249,783.134 318.971,747.687 353.774,725.085C313.478,741.033 280.979,772.466 263.612,812.028C251.134,805.892 237.231,802.212 222.536,801.62L222.525,802.066L222.495,802.065Z" style="fill:white;"/>
    </g>
    <g transform="matrix(14.9601,0,0,14.9601,-3522.85,-9040.71)">
        <g transform="matrix(40.6636,0,0,40.6636,316.98,641.313)">
            <path d="M0.405,0.01C0.354,0.01 0.307,0.001 0.263,-0.018C0.219,-0.037 0.18,-0.063 0.147,-0.096C0.114,-0.129 0.087,-0.167 0.069,-0.21C0.05,-0.253 0.04,-0.3 0.04,-0.35C0.04,-0.4 0.05,-0.447 0.069,-0.49C0.087,-0.533 0.114,-0.572 0.147,-0.605C0.18,-0.637 0.219,-0.663 0.263,-0.682C0.307,-0.701 0.354,-0.71 0.405,-0.71C0.436,-0.71 0.467,-0.707 0.496,-0.7C0.525,-0.693 0.552,-0.683 0.577,-0.67C0.587,-0.665 0.595,-0.658 0.6,-0.649C0.605,-0.64 0.607,-0.63 0.607,-0.621C0.607,-0.605 0.602,-0.591 0.591,-0.578C0.58,-0.565 0.567,-0.559 0.55,-0.559C0.545,-0.559 0.539,-0.56 0.534,-0.561C0.528,-0.562 0.522,-0.564 0.517,-0.567C0.5,-0.574 0.483,-0.58 0.464,-0.584C0.445,-0.588 0.426,-0.59 0.405,-0.59C0.362,-0.59 0.322,-0.579 0.286,-0.558C0.251,-0.536 0.223,-0.507 0.202,-0.47C0.181,-0.434 0.17,-0.394 0.17,-0.35C0.17,-0.307 0.181,-0.267 0.202,-0.23C0.223,-0.193 0.251,-0.164 0.286,-0.142C0.322,-0.121 0.362,-0.11 0.405,-0.11C0.425,-0.11 0.447,-0.112 0.471,-0.116C0.495,-0.12 0.515,-0.125 0.53,-0.132L0.521,-0.102L0.521,-0.273L0.538,-0.258L0.427,-0.258C0.41,-0.258 0.395,-0.264 0.384,-0.275C0.372,-0.286 0.366,-0.301 0.366,-0.318C0.366,-0.335 0.372,-0.35 0.384,-0.361C0.395,-0.372 0.41,-0.378 0.427,-0.378L0.591,-0.378C0.608,-0.378 0.623,-0.372 0.634,-0.361C0.645,-0.349 0.651,-0.334 0.651,-0.317L0.651,-0.105C0.651,-0.092 0.648,-0.081 0.642,-0.072C0.635,-0.063 0.628,-0.056 0.62,-0.051C0.589,-0.032 0.556,-0.018 0.52,-0.007C0.483,0.004 0.445,0.01 0.405,0.01Z" style="fill:white;fill-rule:nonzero;"/>
        </g>
        <g transform="matrix(40.6636,0,0,40.6636,345.282,641.313)">
            <path d="M0.579,-0.267C0.579,-0.212 0.567,-0.164 0.543,-0.123C0.518,-0.081 0.486,-0.048 0.445,-0.025C0.404,-0.002 0.358,0.01 0.307,0.01C0.256,0.01 0.211,-0.002 0.17,-0.025C0.129,-0.048 0.096,-0.081 0.071,-0.123C0.047,-0.164 0.035,-0.212 0.035,-0.267C0.035,-0.322 0.047,-0.37 0.071,-0.411C0.096,-0.453 0.129,-0.486 0.17,-0.509C0.211,-0.533 0.256,-0.545 0.307,-0.545C0.358,-0.545 0.404,-0.533 0.445,-0.509C0.486,-0.486 0.518,-0.453 0.543,-0.411C0.567,-0.37 0.579,-0.322 0.579,-0.267ZM0.459,-0.267C0.459,-0.301 0.452,-0.331 0.439,-0.356C0.425,-0.381 0.406,-0.4 0.384,-0.414C0.361,-0.428 0.335,-0.435 0.307,-0.435C0.279,-0.435 0.254,-0.428 0.231,-0.414C0.207,-0.4 0.189,-0.381 0.175,-0.356C0.162,-0.331 0.155,-0.301 0.155,-0.267C0.155,-0.234 0.162,-0.204 0.175,-0.18C0.189,-0.155 0.207,-0.135 0.231,-0.121C0.254,-0.107 0.279,-0.1 0.307,-0.1C0.335,-0.1 0.361,-0.107 0.384,-0.121C0.406,-0.135 0.425,-0.155 0.439,-0.18C0.452,-0.204 0.459,-0.234 0.459,-0.267Z" style="fill:white;fill-rule:nonzero;"/>
        </g>
        <g transform="matrix(40.6636,0,0,40.6636,370.249,641.313)">
            <path d="M0.138,-0.701C0.147,-0.701 0.157,-0.699 0.168,-0.694C0.178,-0.689 0.186,-0.682 0.191,-0.674L0.434,-0.3L0.384,-0.302L0.633,-0.674C0.646,-0.692 0.662,-0.701 0.682,-0.701C0.698,-0.701 0.712,-0.695 0.725,-0.684C0.738,-0.673 0.744,-0.658 0.744,-0.64L0.744,-0.061C0.744,-0.044 0.738,-0.029 0.727,-0.018C0.716,-0.006 0.701,0 0.682,0C0.663,0 0.648,-0.006 0.636,-0.018C0.625,-0.029 0.619,-0.044 0.619,-0.061L0.619,-0.532L0.658,-0.523L0.454,-0.212C0.448,-0.205 0.441,-0.198 0.432,-0.193C0.423,-0.188 0.413,-0.185 0.404,-0.186C0.395,-0.185 0.387,-0.188 0.378,-0.193C0.369,-0.198 0.361,-0.205 0.355,-0.212L0.164,-0.514L0.19,-0.567L0.19,-0.061C0.19,-0.044 0.185,-0.029 0.174,-0.018C0.163,-0.006 0.149,0 0.132,0C0.115,0 0.102,-0.006 0.091,-0.018C0.08,-0.029 0.075,-0.044 0.075,-0.061L0.075,-0.64C0.075,-0.657 0.081,-0.671 0.094,-0.683C0.106,-0.695 0.121,-0.701 0.138,-0.701Z" style="fill:white;fill-rule:nonzero;"/>
        </g>
        <g transform="matrix(40.6636,0,0,40.6636,403.553,641.313)">
            <path d="M0.178,-0.061C0.178,-0.044 0.172,-0.029 0.161,-0.018C0.15,-0.006 0.135,0 0.118,0C0.101,0 0.086,-0.006 0.075,-0.018C0.064,-0.029 0.058,-0.044 0.058,-0.061L0.058,-0.474C0.058,-0.491 0.064,-0.506 0.075,-0.518C0.086,-0.529 0.101,-0.535 0.118,-0.535C0.135,-0.535 0.15,-0.529 0.161,-0.518C0.172,-0.506 0.178,-0.491 0.178,-0.474L0.178,-0.061ZM0.117,-0.6C0.094,-0.6 0.078,-0.604 0.069,-0.611C0.06,-0.618 0.055,-0.631 0.055,-0.65L0.055,-0.669C0.055,-0.688 0.06,-0.702 0.07,-0.709C0.081,-0.716 0.097,-0.719 0.118,-0.719C0.141,-0.719 0.158,-0.715 0.167,-0.708C0.176,-0.701 0.181,-0.688 0.181,-0.669L0.181,-0.65C0.181,-0.631 0.176,-0.618 0.166,-0.611C0.156,-0.604 0.14,-0.6 0.117,-0.6Z" style="fill:white;fill-rule:nonzero;"/>
        </g>
        <g transform="matrix(40.6636,0,0,40.6636,413.149,641.313)">
            <path d="M0.351,-0.545C0.4,-0.545 0.438,-0.535 0.464,-0.514C0.489,-0.493 0.507,-0.466 0.517,-0.432C0.526,-0.397 0.531,-0.359 0.531,-0.317L0.531,-0.061C0.531,-0.044 0.525,-0.029 0.514,-0.018C0.503,-0.006 0.488,0 0.471,0C0.454,0 0.439,-0.006 0.428,-0.018C0.417,-0.029 0.411,-0.044 0.411,-0.061L0.411,-0.317C0.411,-0.339 0.408,-0.359 0.403,-0.377C0.397,-0.394 0.387,-0.408 0.372,-0.419C0.357,-0.43 0.336,-0.435 0.309,-0.435C0.282,-0.435 0.26,-0.43 0.242,-0.419C0.223,-0.408 0.209,-0.394 0.2,-0.377C0.19,-0.359 0.185,-0.339 0.185,-0.317L0.185,-0.061C0.185,-0.044 0.179,-0.029 0.168,-0.018C0.157,-0.006 0.142,0 0.125,0C0.108,0 0.093,-0.006 0.082,-0.018C0.071,-0.029 0.065,-0.044 0.065,-0.061L0.065,-0.474C0.065,-0.491 0.071,-0.506 0.082,-0.518C0.093,-0.529 0.108,-0.535 0.125,-0.535C0.142,-0.535 0.157,-0.529 0.168,-0.518C0.179,-0.506 0.185,-0.491 0.185,-0.474L0.185,-0.431L0.17,-0.434C0.176,-0.445 0.185,-0.458 0.196,-0.47C0.207,-0.484 0.221,-0.496 0.236,-0.507C0.251,-0.518 0.269,-0.528 0.288,-0.535C0.307,-0.542 0.328,-0.545 0.351,-0.545Z" style="fill:white;fill-rule:nonzero;"/>
        </g>
        <g transform="matrix(40.6636,0,0,40.6636,437.385,641.313)">
            <path d="M0.071,-0.525L0.308,-0.525C0.324,-0.525 0.337,-0.52 0.348,-0.509C0.359,-0.498 0.364,-0.485 0.364,-0.469C0.364,-0.454 0.359,-0.441 0.348,-0.431C0.337,-0.42 0.324,-0.415 0.308,-0.415L0.071,-0.415C0.055,-0.415 0.042,-0.42 0.031,-0.431C0.02,-0.442 0.015,-0.455 0.015,-0.471C0.015,-0.486 0.02,-0.499 0.031,-0.509C0.042,-0.52 0.055,-0.525 0.071,-0.525ZM0.178,-0.65C0.195,-0.65 0.21,-0.644 0.221,-0.632C0.232,-0.621 0.237,-0.606 0.237,-0.589L0.237,-0.144C0.237,-0.135 0.239,-0.127 0.243,-0.121C0.246,-0.115 0.251,-0.111 0.258,-0.108C0.264,-0.105 0.271,-0.104 0.278,-0.104C0.286,-0.104 0.293,-0.106 0.3,-0.109C0.307,-0.112 0.314,-0.113 0.323,-0.113C0.332,-0.113 0.341,-0.109 0.348,-0.1C0.356,-0.091 0.36,-0.079 0.36,-0.064C0.36,-0.045 0.35,-0.03 0.33,-0.018C0.309,-0.006 0.287,0 0.264,0C0.25,0 0.234,-0.001 0.218,-0.004C0.201,-0.006 0.185,-0.012 0.17,-0.021C0.155,-0.029 0.142,-0.043 0.132,-0.062C0.122,-0.081 0.117,-0.106 0.117,-0.139L0.117,-0.589C0.117,-0.606 0.123,-0.621 0.135,-0.632C0.146,-0.644 0.161,-0.65 0.178,-0.65Z" style="fill:white;fill-rule:nonzero;"/>
        </g>
    </g>
</svg>
