<?xml version="1.0" encoding="UTF-8" standalone="no"?>
<!DOCTYPE svg PUBLIC "-//W3C//DTD SVG 1.1//EN" "http://www.w3.org/Graphics/SVG/1.1/DTD/svg11.dtd">
<svg width="100%" height="100%" viewBox="0 0 3584 640" version="1.1" xmlns="http://www.w3.org/2000/svg" xmlns:xlink="http://www.w3.org/1999/xlink" xml:space="preserve" xmlns:serif="http://www.serif.com/" style="fill-rule:evenodd;clip-rule:evenodd;stroke-linejoin:round;stroke-miterlimit:2;">
    <g transform="matrix(1.16464,0,0,1.16464,-744.601,95.1755)">
        <g transform="matrix(600,0,0,600,1697.12,341.842)">
            <path d="M0.037,-0.265C0.037,-0.119 0.123,-0.006 0.263,-0.006C0.337,-0.006 0.384,-0.034 0.414,-0.083L0.416,-0.083C0.416,-0.083 0.414,-0.067 0.414,-0.051L0.414,-0.017C0.414,0.085 0.342,0.124 0.254,0.124C0.178,0.124 0.116,0.09 0.116,0.09L0.083,0.168C0.133,0.193 0.195,0.21 0.256,0.21C0.384,0.21 0.511,0.146 0.511,-0.021L0.511,-0.403C0.511,-0.416 0.52,-0.423 0.533,-0.423L0.573,-0.423L0.573,-0.506L0.479,-0.506C0.439,-0.506 0.423,-0.485 0.423,-0.455L0.423,-0.439L0.421,-0.439C0.421,-0.439 0.385,-0.518 0.259,-0.518C0.118,-0.518 0.037,-0.41 0.037,-0.265ZM0.282,-0.09C0.191,-0.09 0.136,-0.162 0.136,-0.267C0.136,-0.37 0.186,-0.434 0.274,-0.434C0.352,-0.434 0.417,-0.396 0.417,-0.264C0.417,-0.132 0.352,-0.09 0.282,-0.09Z" style="fill:white;fill-rule:nonzero;"/>
        </g>
        <g transform="matrix(600,0,0,600,2054.12,341.842)">
            <path d="M0.036,-0.254C0.036,-0.1 0.157,0.012 0.308,0.012C0.459,0.012 0.581,-0.1 0.581,-0.254C0.581,-0.407 0.459,-0.518 0.308,-0.518C0.157,-0.518 0.036,-0.407 0.036,-0.254ZM0.135,-0.254C0.135,-0.359 0.213,-0.434 0.308,-0.434C0.404,-0.434 0.482,-0.359 0.482,-0.254C0.482,-0.148 0.404,-0.072 0.308,-0.072C0.213,-0.072 0.135,-0.148 0.135,-0.254Z" style="fill:white;fill-rule:nonzero;"/>
        </g>
        <g transform="matrix(600,0,0,600,2424.32,341.842)">
            <path d="M0.085,0L0.182,0L0.182,-0.231C0.182,-0.254 0.184,-0.276 0.189,-0.296C0.208,-0.368 0.26,-0.43 0.334,-0.43C0.411,-0.43 0.421,-0.369 0.421,-0.303L0.421,0L0.518,0L0.518,-0.231C0.518,-0.257 0.521,-0.279 0.526,-0.3C0.544,-0.369 0.598,-0.43 0.668,-0.43C0.743,-0.43 0.757,-0.374 0.757,-0.303L0.757,-0.064C0.757,-0.019 0.776,0 0.821,0L0.917,0L0.917,-0.083L0.876,-0.083C0.862,-0.083 0.854,-0.09 0.854,-0.105L0.854,-0.324C0.854,-0.453 0.801,-0.518 0.687,-0.518C0.605,-0.518 0.535,-0.464 0.507,-0.403L0.505,-0.403C0.488,-0.479 0.439,-0.518 0.353,-0.518C0.274,-0.518 0.204,-0.461 0.18,-0.402L0.178,-0.402C0.178,-0.402 0.179,-0.415 0.179,-0.431L0.179,-0.45C0.179,-0.487 0.159,-0.506 0.115,-0.506L0.022,-0.506L0.022,-0.423L0.063,-0.423C0.077,-0.423 0.085,-0.416 0.085,-0.401L0.085,0Z" style="fill:white;fill-rule:nonzero;"/>
        </g>
        <g transform="matrix(600,0,0,600,2986.52,341.842)">
            <path d="M0.092,-0.605L0.179,-0.605L0.179,-0.706L0.092,-0.706L0.092,-0.605ZM0.09,-0.064C0.09,-0.019 0.109,0 0.154,0L0.249,0L0.249,-0.083L0.208,-0.083C0.194,-0.083 0.186,-0.09 0.186,-0.105L0.186,-0.442C0.186,-0.487 0.167,-0.506 0.122,-0.506L0.027,-0.506L0.027,-0.423L0.068,-0.423C0.082,-0.423 0.09,-0.416 0.09,-0.401L0.09,-0.064Z" style="fill:white;fill-rule:nonzero;"/>
        </g>
        <g transform="matrix(600,0,0,600,3151.52,341.842)">
            <path d="M0.085,0L0.182,0L0.182,-0.237C0.182,-0.262 0.184,-0.285 0.191,-0.305C0.211,-0.378 0.273,-0.429 0.351,-0.429C0.432,-0.429 0.446,-0.373 0.446,-0.302L0.446,-0.064C0.446,-0.019 0.465,0 0.51,0L0.606,0L0.606,-0.083L0.565,-0.083C0.551,-0.083 0.543,-0.09 0.543,-0.105L0.543,-0.324C0.543,-0.453 0.489,-0.518 0.369,-0.518C0.259,-0.518 0.199,-0.446 0.179,-0.402L0.177,-0.402C0.177,-0.402 0.179,-0.415 0.179,-0.431L0.179,-0.45C0.179,-0.487 0.158,-0.506 0.115,-0.506L0.022,-0.506L0.022,-0.423L0.063,-0.423C0.077,-0.423 0.085,-0.416 0.085,-0.401L0.085,0Z" style="fill:white;fill-rule:nonzero;"/>
        </g>
        <g transform="matrix(600,0,0,600,3527.12,341.842)">
            <path d="M0.089,-0.185C0.089,-0.016 0.218,0.004 0.282,0.004C0.303,0.004 0.316,0.002 0.316,0.002L0.316,-0.084C0.316,-0.084 0.307,-0.082 0.293,-0.082C0.256,-0.082 0.186,-0.095 0.186,-0.196L0.186,-0.428L0.307,-0.428L0.307,-0.506L0.186,-0.506L0.186,-0.645L0.091,-0.645L0.091,-0.506L0.023,-0.506L0.023,-0.428L0.089,-0.428L0.089,-0.185Z" style="fill:white;fill-rule:nonzero;"/>
        </g>
    </g>
    <g id="gomint-solid-black" transform="matrix(1,0,0,1,512,320)">
        <g transform="matrix(1,0,0,1,-512,-320)">
            <clipPath id="_clip1">
                <rect x="0" y="0" width="1024" height="640"/>
            </clipPath>
            <g clip-path="url(#_clip1)">
                <g transform="matrix(2.90352,-0.779091,0.83299,2.71565,-992.201,-1345.35)">
                    <path d="M249.106,706.478C238.783,727.981 233,752.071 233,777.5C233,784.404 233.426,791.209 234.304,797.878C179.278,762.384 148.61,695.625 162.209,627.509C162.868,624.212 163.62,620.958 164.493,617.765C187.168,612.146 211.42,611.33 235.847,616.207C260.042,621.037 281.934,630.959 300.601,644.633C283.225,657.316 268.431,673.321 257.154,691.71C227.24,685.286 202.145,665.834 188.123,639.605C197.035,670.195 219.777,694.893 249.106,706.478Z" style="fill:white;"/>
                </g>
                <g transform="matrix(3.02065,0,0,2.8252,-277.361,-1805.3)">
                    <path d="M222.495,802.065C223.266,711.934 296.677,639 386.988,639C397.203,639 407.202,639.933 416.87,641.763C425.857,662.039 430.822,684.451 430.822,708.013C430.822,782.284 381.495,845.124 313.843,865.533C308.453,852.52 300.466,840.851 290.531,831.174C288.23,828.903 285.823,826.74 283.317,824.692C293.249,783.134 318.971,747.687 353.774,725.085C313.478,741.033 280.979,772.466 263.612,812.028C251.134,805.892 237.231,802.212 222.536,801.62L222.525,802.066L222.495,802.065Z" style="fill:white;"/>
                </g>
            </g>
        </g>
    </g>
</svg>
