<?xml version="1.0" encoding="UTF-8" standalone="no"?><!DOCTYPE svg PUBLIC "-//W3C//DTD SVG 1.1//EN" "http://www.w3.org/Graphics/SVG/1.1/DTD/svg11.dtd"><svg width="100%" height="100%" viewBox="0 0 100 90" version="1.1" xmlns="http://www.w3.org/2000/svg" xmlns:xlink="http://www.w3.org/1999/xlink" xml:space="preserve" xmlns:serif="http://www.serif.com/" style="fill-rule:evenodd;clip-rule:evenodd;stroke-linejoin:round;stroke-miterlimit:2;"><g id="Vectorized-Logo" serif:id="Vectorized Logo"><path d="M50,0l0,82.568l8.282,4.296c16.156,8.772 25.392,-2.862 31.933,-10.414c7.093,-8.189 9.417,-19.233 9.811,-24.913c-6.968,-3.641 -14.451,-4.186 -23.208,-4c-3.023,-20.974 -12.199,-36.727 -26.818,-47.537c-14.651,10.81 -23.685,26.563 -26.716,47.537c-8.776,-0.186 -16.275,0.359 -23.258,4c0.395,5.68 2.724,16.724 9.832,24.913c6.556,7.552 15.812,19.186 32.003,10.414l8.139,-4.296l0,-82.568Z"/></g></svg>